<mxfile host="app.diagrams.net" agent="Mozilla/5.0 (Macintosh; Intel Mac OS X 10_15_7) AppleWebKit/537.36 (KHTML, like Gecko) Chrome/133.0.0.0 Safari/537.36" version="26.1.0">
  <diagram name="페이지-1" id="ZZdQrvknuJlCXeghGREd">
    <mxGraphModel dx="2261" dy="1930" grid="1" gridSize="10" guides="1" tooltips="1" connect="1" arrows="1" fold="1" page="1" pageScale="1" pageWidth="827" pageHeight="1169" math="0" shadow="0">
      <root>
        <mxCell id="0" />
        <mxCell id="1" parent="0" />
        <mxCell id="GovcZ-olXP5dSqTDZoE6-1" value="&lt;p style=&quot;margin:0px;margin-top:4px;text-align:center;&quot;&gt;&lt;b&gt;cart  /* 장바구니 관리 테이블 */&lt;/b&gt;&lt;/p&gt;&lt;hr size=&quot;1&quot;/&gt;&lt;p style=&quot;margin:0 0 0 4px;line-height:1.6;&quot;&gt; user_id  /* 회원순번 */: bigint&lt;br/&gt; product_id  /* 상품채번 */: bigint&lt;br/&gt; product_option_id  /* 상품옵션 순번 */: bigint&lt;br/&gt; quantity  /* 수량 */: bigint&lt;br/&gt; cart_type  /* 장바구니유형 */: varchar(50)&lt;br/&gt; uuid  /* 게스트 식별자 */: varchar(100)&lt;br/&gt; delete_yn: varchar(1)&lt;br/&gt; created_user_id: bigint&lt;br/&gt; created_datetime: datetime&lt;br/&gt; modified_user_id: bigint&lt;br/&gt; modified_datetime: datetime&lt;/p&gt;&lt;hr size=&quot;1&quot;/&gt;&lt;p style=&quot;margin:0 0 0 4px;line-height:1.6;&quot;&gt; cart_id  /* 장바구니 채번 PK */: bigint&lt;/p&gt;" style="verticalAlign=top;align=left;overflow=fill;fontSize=14;fontFamily=Helvetica;html=1;rounded=0;shadow=0;comic=0;labelBackgroundColor=none;strokeWidth=1;" vertex="1" parent="1">
          <mxGeometry x="1964" y="1562" width="282" height="328" as="geometry" />
        </mxCell>
        <mxCell id="GovcZ-olXP5dSqTDZoE6-2" value="&lt;p style=&quot;margin:0px;margin-top:4px;text-align:center;&quot;&gt;&lt;b&gt;category  /* 카테고리 관리 테이블 */&lt;/b&gt;&lt;/p&gt;&lt;hr size=&quot;1&quot;/&gt;&lt;p style=&quot;margin:0 0 0 4px;line-height:1.6;&quot;&gt; upper_category_id  /* 상위 카테고리 순번 */: bigint&lt;br/&gt; category_type  /* 카테고리 유형 */: varchar(20)&lt;br/&gt; category_code  /* 카테고리 코드 */: varchar(20)&lt;br/&gt; category_name  /* 카테고리 명 */: varchar(50)&lt;br/&gt; delete_yn: varchar(1)&lt;br/&gt; created_user_id: bigint&lt;br/&gt; created_datetime: datetime&lt;br/&gt; modified_user_id: bigint&lt;br/&gt; modified_datetime: datetime&lt;/p&gt;&lt;hr size=&quot;1&quot;/&gt;&lt;p style=&quot;margin:0 0 0 4px;line-height:1.6;&quot;&gt; category_id  /* 카테고리 순번 PK */: bigint&lt;/p&gt;" style="verticalAlign=top;align=left;overflow=fill;fontSize=14;fontFamily=Helvetica;html=1;rounded=0;shadow=0;comic=0;labelBackgroundColor=none;strokeWidth=1;" vertex="1" parent="1">
          <mxGeometry x="524" y="1983" width="307" height="280" as="geometry" />
        </mxCell>
        <mxCell id="GovcZ-olXP5dSqTDZoE6-3" value="&lt;p style=&quot;margin:0px;margin-top:4px;text-align:center;&quot;&gt;&lt;b&gt;image  /* 상품 이미지 */&lt;/b&gt;&lt;/p&gt;&lt;hr size=&quot;1&quot;/&gt;&lt;p style=&quot;margin:0 0 0 4px;line-height:1.6;&quot;&gt; product_id  /* 상품채번 */: bigint&lt;br/&gt; admin_image_file_name  /* 이미지파일 관리 이름 */: varchar(1000)&lt;br/&gt; original_image_file_name  /* 이미지파일 원본 이름 */: varchar(1000)&lt;br/&gt; image_file_name  /* 이미지파일 이름 */: varchar(1000)&lt;br/&gt; image_file_url  /* 이미지파일 url */: text&lt;br/&gt; image_type  /* 이미지유형 */: varchar(20)&lt;br/&gt; display_order  /* 노출순서 */: int&lt;br/&gt; content_type  /* 컨텐츠유형 */: varchar(20)&lt;br/&gt; width  /* 너비 */: int&lt;br/&gt; height  /* 높이 */: int&lt;br/&gt; file_size  /* 파일크기 */: int&lt;br/&gt; delete_yn: varchar(1)&lt;br/&gt; created_user_id: bigint&lt;br/&gt; created_datetime: datetime&lt;br/&gt; modified_user_id: bigint&lt;br/&gt; modified_datetime: datetime&lt;/p&gt;&lt;hr size=&quot;1&quot;/&gt;&lt;p style=&quot;margin:0 0 0 4px;line-height:1.6;&quot;&gt; image_id  /* 이미지순번 PK */: bigint&lt;/p&gt;" style="verticalAlign=top;align=left;overflow=fill;fontSize=14;fontFamily=Helvetica;html=1;rounded=0;shadow=0;comic=0;labelBackgroundColor=none;strokeWidth=1;" vertex="1" parent="1">
          <mxGeometry x="212" y="1045" width="412" height="448" as="geometry" />
        </mxCell>
        <mxCell id="GovcZ-olXP5dSqTDZoE6-4" value="&lt;p style=&quot;margin:0px;margin-top:4px;text-align:center;&quot;&gt;&lt;b&gt;order_close  /* 주문 마감 관리 테이블 */&lt;/b&gt;&lt;/p&gt;&lt;hr size=&quot;1&quot;/&gt;&lt;p style=&quot;margin:0 0 0 4px;line-height:1.6;&quot;&gt; user_id  /* 회원순번 */: bigint&lt;br/&gt; user_type  /* 회원유형 */: varchar(50)&lt;br/&gt; order_type  /* 주문유형 */: varchar(50)&lt;br/&gt; settle_datetime  /* 정산일시 */: datetime&lt;br/&gt; settle_month  /* 정산월 */: varchar(10)&lt;br/&gt; base_date  /* 정산 기준일 */: date&lt;br/&gt; sales_order_id  /* 주문채번 */: bigint&lt;br/&gt; return_order_id  /* 반품채번 */: bigint&lt;br/&gt; product_sale_amount  /* 조정 상품가 합 */: decimal(19,2)&lt;br/&gt; close_month  /* 마감월 */: varchar(10)&lt;br/&gt; delete_yn: varchar(1)&lt;br/&gt; created_user_id: bigint&lt;br/&gt; created_datetime: datetime&lt;br/&gt; modified_user_id: bigint&lt;br/&gt; modified_datetime: datetime&lt;/p&gt;&lt;hr size=&quot;1&quot;/&gt;&lt;p style=&quot;margin:0 0 0 4px;line-height:1.6;&quot;&gt; order_close_id  /* 주문마감 채번 PK */: bigint&lt;/p&gt;" style="verticalAlign=top;align=left;overflow=fill;fontSize=14;fontFamily=Helvetica;html=1;rounded=0;shadow=0;comic=0;labelBackgroundColor=none;strokeWidth=1;" vertex="1" parent="1">
          <mxGeometry x="669" y="1045" width="355" height="424" as="geometry" />
        </mxCell>
        <mxCell id="GovcZ-olXP5dSqTDZoE6-5" value="&lt;p style=&quot;margin:0px;margin-top:4px;text-align:center;&quot;&gt;&lt;b&gt;payment  /* 결제 관리 테이블 */&lt;/b&gt;&lt;/p&gt;&lt;hr size=&quot;1&quot;/&gt;&lt;p style=&quot;margin:0 0 0 4px;line-height:1.6;&quot;&gt; domain_type  /* 도메인 유형 */: varchar(50)&lt;br/&gt; order_id  /* 주문채번 */: bigint&lt;br/&gt; order_number  /* 주문번호 */: varchar(20)&lt;br/&gt; user_id  /* 회원순번 */: bigint&lt;br/&gt; user_type  /* 회원유형 */: varchar(50)&lt;br/&gt; payment_type  /* 결제유형 */: varchar(50)&lt;br/&gt; payment_status  /* 결제상태 */: varchar(50)&lt;br/&gt; amount  /* 결제금액 */: bigint&lt;br/&gt; cancel_amount  /* 취소금액 */: bigint&lt;br/&gt; pg_order_number  /* PG 주문번호 */: varchar(50)&lt;br/&gt; pg_approve_number  /* PG 승인번호 */: varchar(50)&lt;br/&gt; request_date  /* 요청일 */: date&lt;br/&gt; complete_date  /* 완료일 */: date&lt;br/&gt; cancel_date  /* 취소일 */: date&lt;br/&gt; receipt  /* 영수증 */: varchar(200)&lt;br/&gt; delete_yn: varchar(1)&lt;br/&gt; created_user_id: bigint&lt;br/&gt; created_datetime: datetime&lt;br/&gt; modified_user_id: bigint&lt;br/&gt; modified_datetime: datetime&lt;/p&gt;&lt;hr size=&quot;1&quot;/&gt;&lt;p style=&quot;margin:0 0 0 4px;line-height:1.6;&quot;&gt; payment_id  /* 결제채번 PK */: bigint&lt;/p&gt;" style="verticalAlign=top;align=left;overflow=fill;fontSize=14;fontFamily=Helvetica;html=1;rounded=0;shadow=0;comic=0;labelBackgroundColor=none;strokeWidth=1;" vertex="1" parent="1">
          <mxGeometry x="1443" y="-404" width="330" height="544" as="geometry" />
        </mxCell>
        <mxCell id="GovcZ-olXP5dSqTDZoE6-6" value="&lt;p style=&quot;margin:0px;margin-top:4px;text-align:center;&quot;&gt;&lt;b&gt;payment_cancel  /* 결제취소 관리 테이블 */&lt;/b&gt;&lt;/p&gt;&lt;hr size=&quot;1&quot;/&gt;&lt;p style=&quot;margin:0 0 0 4px;line-height:1.6;&quot;&gt; payment_id  /* 결제채번 */: bigint&lt;br/&gt; cancel_status  /* 결제취소 상태 */: varchar(100)&lt;br/&gt; cancel_amount  /* 결제취소 금액 */: decimal(19,2)&lt;br/&gt; sales_order_id  /* 주문채번 */: bigint&lt;br/&gt; order_number  /* 주문번호 */: varchar(100)&lt;br/&gt; cancel_service_type  /* 결제취소 유형 */: varchar(100)&lt;br/&gt; cancel_request_time  /* 결제취소 요청일시 */: datetime&lt;br/&gt; cancel_complete_time  /* 결제취소 완료일시 */: datetime&lt;br/&gt; cancel_reason  /* 결제취소 사유 */: varchar(1000)&lt;br/&gt; cancel_transaction_key  /* 결제취소 거래키 */: varchar(100)&lt;br/&gt; user_refund_bank_account_id  /* 결제 환불계좌 아이디 */: bigint&lt;br/&gt; delete_yn: varchar(1)&lt;br/&gt; created_user_id: bigint&lt;br/&gt; created_datetime: datetime&lt;br/&gt; modified_user_id: bigint&lt;br/&gt; modified_datetime: datetime&lt;/p&gt;&lt;hr size=&quot;1&quot;/&gt;&lt;p style=&quot;margin:0 0 0 4px;line-height:1.6;&quot;&gt; payment_cancel_id  /* 결제취소 채번 PK */: bigint&lt;/p&gt;" style="verticalAlign=top;align=left;overflow=fill;fontSize=14;fontFamily=Helvetica;html=1;rounded=0;shadow=0;comic=0;labelBackgroundColor=none;strokeWidth=1;" vertex="1" parent="1">
          <mxGeometry x="1406" y="181" width="393" height="448" as="geometry" />
        </mxCell>
        <mxCell id="GovcZ-olXP5dSqTDZoE6-7" value="&lt;p style=&quot;margin:0px;margin-top:4px;text-align:center;&quot;&gt;&lt;b&gt;payment_history  /* 결제이력 관리 테이블 */&lt;/b&gt;&lt;/p&gt;&lt;hr size=&quot;1&quot;/&gt;&lt;p style=&quot;margin:0 0 0 4px;line-height:1.6;&quot;&gt; payment_id  /* 결제채번 */: bigint&lt;br/&gt; payment_request_type  /* 요청유형 */: varchar(50)&lt;br/&gt; amount  /* 결제금액 */: bigint&lt;br/&gt; request_datetime  /* 요청일시 */: datetime&lt;br/&gt; delete_yn: varchar(1)&lt;br/&gt; created_user_id: bigint&lt;br/&gt; created_datetime: datetime&lt;br/&gt; modified_user_id: bigint&lt;br/&gt; modified_datetime: datetime&lt;/p&gt;&lt;hr size=&quot;1&quot;/&gt;&lt;p style=&quot;margin:0 0 0 4px;line-height:1.6;&quot;&gt; payment_history_id  /* 결제이력 채번 PK */: bigint&lt;/p&gt;" style="verticalAlign=top;align=left;overflow=fill;fontSize=14;fontFamily=Helvetica;html=1;rounded=0;shadow=0;comic=0;labelBackgroundColor=none;strokeWidth=1;" vertex="1" parent="1">
          <mxGeometry x="151" y="1983" width="328" height="280" as="geometry" />
        </mxCell>
        <mxCell id="GovcZ-olXP5dSqTDZoE6-8" value="&lt;p style=&quot;margin:0px;margin-top:4px;text-align:center;&quot;&gt;&lt;b&gt;product  /* 상품 관리 테이블 */&lt;/b&gt;&lt;/p&gt;&lt;hr size=&quot;1&quot;/&gt;&lt;p style=&quot;margin:0 0 0 4px;line-height:1.6;&quot;&gt; category_id  /* 상품 카테고리 순번 */: bigint&lt;br/&gt; product_code  /* 상품코드 */: varchar(20)&lt;br/&gt; product_name  /* 상품명 */: varchar(150)&lt;br/&gt; brand  /* 상품브랜드 */: varchar(20)&lt;br/&gt; product_type  /* 상품유형 */: varchar(20)&lt;br/&gt; delete_yn: varchar(1)&lt;br/&gt; created_user_id: bigint&lt;br/&gt; created_datetime: datetime&lt;br/&gt; modified_user_id: bigint&lt;br/&gt; modified_datetime: datetime&lt;/p&gt;&lt;hr size=&quot;1&quot;/&gt;&lt;p style=&quot;margin:0 0 0 4px;line-height:1.6;&quot;&gt; product_id  /* 상품순번 PK */: bigint&lt;/p&gt;" style="verticalAlign=top;align=left;overflow=fill;fontSize=14;fontFamily=Helvetica;html=1;rounded=0;shadow=0;comic=0;labelBackgroundColor=none;strokeWidth=1;" vertex="1" parent="1">
          <mxGeometry x="2291" y="1562" width="267" height="304" as="geometry" />
        </mxCell>
        <mxCell id="GovcZ-olXP5dSqTDZoE6-9" value="&lt;p style=&quot;margin:0px;margin-top:4px;text-align:center;&quot;&gt;&lt;b&gt;product_category  /* 상품 카테고리 관리 테이블 */&lt;/b&gt;&lt;/p&gt;&lt;hr size=&quot;1&quot;/&gt;&lt;p style=&quot;margin:0 0 0 4px;line-height:1.6;&quot;&gt; product_id  /* 상품순번 */: bigint&lt;br/&gt; category_id  /* 카테고리 순번 */: bigint&lt;br/&gt; representative_category_yn  /* 대표 카테고리 여부 */: char(1)&lt;br/&gt; display_order  /* 노출 순서 */: int&lt;br/&gt; category_display_order  /* 카테고리 노출 순서 */: int&lt;br/&gt; version  /* 버전 */: int&lt;br/&gt; delete_yn: varchar(1)&lt;br/&gt; created_user_id: bigint&lt;br/&gt; created_datetime: datetime&lt;br/&gt; modified_user_id: bigint&lt;br/&gt; modified_datetime: datetime&lt;/p&gt;&lt;hr size=&quot;1&quot;/&gt;&lt;p style=&quot;margin:0 0 0 4px;line-height:1.6;&quot;&gt; product_category_id  /* 상품 카테고리 순번 PK */: bigint&lt;/p&gt;" style="verticalAlign=top;align=left;overflow=fill;fontSize=14;fontFamily=Helvetica;html=1;rounded=0;shadow=0;comic=0;labelBackgroundColor=none;strokeWidth=1;" vertex="1" parent="1">
          <mxGeometry x="1544" y="1562" width="375" height="328" as="geometry" />
        </mxCell>
        <mxCell id="GovcZ-olXP5dSqTDZoE6-10" value="&lt;p style=&quot;margin:0px;margin-top:4px;text-align:center;&quot;&gt;&lt;b&gt;product_tag  /* 상품 태그 관리 테이블 */&lt;/b&gt;&lt;/p&gt;&lt;hr size=&quot;1&quot;/&gt;&lt;p style=&quot;margin:0 0 0 4px;line-height:1.6;&quot;&gt; product_id  /* 상품 순번 */: bigint&lt;br/&gt; tag_id  /* 태그 순번 */: bigint&lt;br/&gt; version  /* 버전 */: int&lt;br/&gt; delete_yn: varchar(1)&lt;br/&gt; created_user_id: bigint&lt;br/&gt; created_datetime: datetime&lt;br/&gt; modified_user_id: bigint&lt;br/&gt; modified_datetime: datetime&lt;/p&gt;&lt;hr size=&quot;1&quot;/&gt;&lt;p style=&quot;margin:0 0 0 4px;line-height:1.6;&quot;&gt; product_tag_id  /* 상품 태그 순번 PK */: bigint&lt;/p&gt;" style="verticalAlign=top;align=left;overflow=fill;fontSize=14;fontFamily=Helvetica;html=1;rounded=0;shadow=0;comic=0;labelBackgroundColor=none;strokeWidth=1;" vertex="1" parent="1">
          <mxGeometry x="876" y="1983" width="283" height="256" as="geometry" />
        </mxCell>
        <mxCell id="GovcZ-olXP5dSqTDZoE6-11" value="&lt;p style=&quot;margin:0px;margin-top:4px;text-align:center;&quot;&gt;&lt;b&gt;refund  /* 환불 관리 테이블 */&lt;/b&gt;&lt;/p&gt;&lt;hr size=&quot;1&quot;/&gt;&lt;p style=&quot;margin:0 0 0 4px;line-height:1.6;&quot;&gt; return_order_id  /* 반품채번 */: bigint&lt;br/&gt; refund_payment_type  /* 환불 결제유형 */: varchar(50)&lt;br/&gt; refund_datetime  /* 환불일시 */: datetime&lt;br/&gt; payment_amount  /* 결제금액 */: bigint&lt;br/&gt; adjustment_amount  /* 조정금액 */: bigint&lt;br/&gt; total_refund_amount  /* 전체 환불금액 */: bigint&lt;br/&gt; adjustment_reason  /* 조정사유 */: varchar(200)&lt;br/&gt; bank_name  /* 은행명 */: varchar(100)&lt;br/&gt; account_no  /* 계좌번호 */: varchar(100)&lt;br/&gt; delete_yn: varchar(1)&lt;br/&gt; created_user_id: bigint&lt;br/&gt; created_datetime: datetime&lt;br/&gt; modified_user_id: bigint&lt;br/&gt; modified_datetime: datetime&lt;/p&gt;&lt;hr size=&quot;1&quot;/&gt;&lt;p style=&quot;margin:0 0 0 4px;line-height:1.6;&quot;&gt; refund_id  /* 환불채번 PK */: bigint&lt;/p&gt;" style="verticalAlign=top;align=left;overflow=fill;fontSize=14;fontFamily=Helvetica;html=1;rounded=0;shadow=0;comic=0;labelBackgroundColor=none;strokeWidth=1;" vertex="1" parent="1">
          <mxGeometry x="1457" y="1045" width="343" height="400" as="geometry" />
        </mxCell>
        <mxCell id="GovcZ-olXP5dSqTDZoE6-12" value="&lt;p style=&quot;margin:0px;margin-top:4px;text-align:center;&quot;&gt;&lt;b&gt;refund_accounts  /* 환불 계좌정보 관리 테이블 */&lt;/b&gt;&lt;/p&gt;&lt;hr size=&quot;1&quot;/&gt;&lt;p style=&quot;margin:0 0 0 4px;line-height:1.6;&quot;&gt; sales_order_id  /* 주문채번 */: bigint&lt;br/&gt; order_number  /* 주문번호 */: varchar(50)&lt;br/&gt; user_id  /* 회원순번 */: bigint&lt;br/&gt; user_refund_bank_account_id  /* 회원 환불계좌 순번 */: bigint&lt;br/&gt; bank_name  /* 은행명 */: varchar(100)&lt;br/&gt; account_no  /* 계좌번호 */: varchar(100)&lt;br/&gt; identification  /* 비회원 식별자 */: varchar(100)&lt;br/&gt; delete_yn: varchar(1)&lt;br/&gt; created_user_id: bigint&lt;br/&gt; created_datetime: datetime&lt;br/&gt; modified_user_id: bigint&lt;br/&gt; modified_datetime: datetime&lt;/p&gt;&lt;hr size=&quot;1&quot;/&gt;&lt;p style=&quot;margin:0 0 0 4px;line-height:1.6;&quot;&gt; refund_accounts_id  /* 환불 계좌정보 순번 PK */: bigint&lt;/p&gt;" style="verticalAlign=top;align=left;overflow=fill;fontSize=14;fontFamily=Helvetica;html=1;rounded=0;shadow=0;comic=0;labelBackgroundColor=none;strokeWidth=1;" vertex="1" parent="1">
          <mxGeometry x="1115" y="1562" width="384" height="352" as="geometry" />
        </mxCell>
        <mxCell id="GovcZ-olXP5dSqTDZoE6-13" value="&lt;p style=&quot;margin:0px;margin-top:4px;text-align:center;&quot;&gt;&lt;b&gt;refund_history  /* 환불이력 관리 테이블 */&lt;/b&gt;&lt;/p&gt;&lt;hr size=&quot;1&quot;/&gt;&lt;p style=&quot;margin:0 0 0 4px;line-height:1.6;&quot;&gt; refund_id  /* 환불채번 PK */: bigint&lt;br/&gt; return_order_id  /* 반품채번 */: bigint&lt;br/&gt; refund_payment_type  /* 환불 결제유형 */: varchar(50)&lt;br/&gt; refund_datetime  /* 환불일시 */: datetime&lt;br/&gt; payment_amount  /* 결제금액 */: bigint&lt;br/&gt; adjustment_amount  /* 조정금액 */: bigint&lt;br/&gt; total_refund_amount  /* 전체 환불금액 */: bigint&lt;br/&gt; adjustment_reason  /* 조정사유 */: varchar(200)&lt;br/&gt; bank_name  /* 은행명 */: varchar(100)&lt;br/&gt; account_no  /* 계좌번호 */: varchar(100)&lt;br/&gt; delete_yn: varchar(1)&lt;br/&gt; created_user_id: bigint&lt;br/&gt; created_datetime: datetime&lt;br/&gt; modified_user_id: bigint&lt;br/&gt; modified_datetime: datetime&lt;/p&gt;&lt;hr size=&quot;1&quot;/&gt;&lt;p style=&quot;margin:0 0 0 4px;line-height:1.6;&quot;&gt; refund_history_id  /* 환불이력 채번 PK */: bigint&lt;/p&gt;" style="verticalAlign=top;align=left;overflow=fill;fontSize=14;fontFamily=Helvetica;html=1;rounded=0;shadow=0;comic=0;labelBackgroundColor=none;strokeWidth=1;" vertex="1" parent="1">
          <mxGeometry x="1069" y="1045" width="343" height="424" as="geometry" />
        </mxCell>
        <mxCell id="GovcZ-olXP5dSqTDZoE6-14" value="&lt;p style=&quot;margin:0px;margin-top:4px;text-align:center;&quot;&gt;&lt;b&gt;return_order  /* 반품 관리 테이블 */&lt;/b&gt;&lt;/p&gt;&lt;hr size=&quot;1&quot;/&gt;&lt;p style=&quot;margin:0 0 0 4px;line-height:1.6;&quot;&gt; return_order_number  /* 반품번호 */: varchar(50)&lt;br/&gt; sales_order_id  /* 주문채번 */: bigint&lt;br/&gt; reception_datetime  /* 접수일시 */: datetime&lt;br/&gt; reception_completion_datetime  /* 접수완료 일시 */: datetime&lt;br/&gt; reception_cancel_datetime  /* 접수취소 일시 */: datetime&lt;br/&gt; return_order_completion_datetime  /* 반품완료 일시 */: datetime&lt;br/&gt; return_order_cancel_datetime  /* 반품취소 일시 */: datetime&lt;br/&gt; return_order_status  /* 반품상태 */: varchar(50)&lt;br/&gt; return_order_agree_yn  /* 동의여부 */: varchar(1)&lt;br/&gt; return_order_agree_datetime  /* 동의일시 */: datetime&lt;br/&gt; reception_approval_yn  /* 승인여부 */: varchar(1)&lt;br/&gt; reception_approval_datetime  /* 승인일시 */: datetime&lt;br/&gt; delete_yn: varchar(1)&lt;br/&gt; created_user_id: bigint&lt;br/&gt; created_datetime: datetime&lt;br/&gt; modified_user_id: bigint&lt;br/&gt; modified_datetime: datetime&lt;/p&gt;&lt;hr size=&quot;1&quot;/&gt;&lt;p style=&quot;margin:0 0 0 4px;line-height:1.6;&quot;&gt; return_order_id  /* 반품채번 PK */: bigint&lt;/p&gt;" style="verticalAlign=top;align=left;overflow=fill;fontSize=14;fontFamily=Helvetica;html=1;rounded=0;shadow=0;comic=0;labelBackgroundColor=none;strokeWidth=1;" vertex="1" parent="1">
          <mxGeometry x="-242" y="1045" width="409" height="472" as="geometry" />
        </mxCell>
        <mxCell id="GovcZ-olXP5dSqTDZoE6-15" value="&lt;p style=&quot;margin:0px;margin-top:4px;text-align:center;&quot;&gt;&lt;b&gt;return_order_history  /* 반품 이력 관리 테이블 */&lt;/b&gt;&lt;/p&gt;&lt;hr size=&quot;1&quot;/&gt;&lt;p style=&quot;margin:0 0 0 4px;line-height:1.6;&quot;&gt; return_order_id  /* 반품채번 */: bigint&lt;br/&gt; return_order_number  /* 반품번호 */: varchar(50)&lt;br/&gt; sales_order_id  /* 주문채번 */: bigint&lt;br/&gt; reception_datetime  /* 접수일시 */: datetime&lt;br/&gt; reception_approval_datetime  /* 접수승인 일시 */: datetime&lt;br/&gt; reception_completion_datetime  /* 접수완료 일시 */: datetime&lt;br/&gt; reception_cancel_datetime  /* 접수취소 일시 */: datetime&lt;br/&gt; return_order_completion_datetime  /* 반품완료 일시 */: datetime&lt;br/&gt; return_order_cancel_datetime  /* 반품취소 일시 */: datetime&lt;br/&gt; return_order_status  /* 반품상태 */: varchar(50)&lt;br/&gt; settlement_status  /* 정산상태 */: varchar(50)&lt;br/&gt; payment_redemption_amount  /* 결제 환수금액 */: decimal(19,2)&lt;br/&gt; return_order_agree_yn  /* 반품동의 여부 */: char(1)&lt;br/&gt; return_order_agree_datetime  /* 반품동의 일시 */: datetime&lt;br/&gt; reception_approval_yn  /* 접수승인 여부 */: char(1)&lt;br/&gt; delivery_fee_amount  /* 배송비 */: decimal(19,2)&lt;br/&gt; return_shipping  /* 반품 배송비 */: decimal(19,2)&lt;br/&gt; other_amount  /* 기타금액 */: decimal(19,2)&lt;br/&gt; before_status  /* 이전 주문상태 */: varchar(100)&lt;br/&gt; after_status  /* 이후 주문상태 */: varchar(100)&lt;br/&gt; memo  /* 메모 */: varchar(1000)&lt;br/&gt; user_name  /* 회원명 */: varchar(255)&lt;br/&gt; product_id  /* 제품 식별자 */: bigint&lt;br/&gt; product_option_id  /* 제품 옵션 채번 */: bigint&lt;br/&gt; quantity_before  /* 이전 수량 */: bigint&lt;br/&gt; quantity_after  /* 이후 수량 */: bigint&lt;/p&gt;&lt;hr size=&quot;1&quot;/&gt;&lt;p style=&quot;margin:0 0 0 4px;line-height:1.6;&quot;&gt; return_order_history_id  /* 반품이력 채번 PK */: bigint&lt;/p&gt;" style="verticalAlign=top;align=left;overflow=fill;fontSize=14;fontFamily=Helvetica;html=1;rounded=0;shadow=0;comic=0;labelBackgroundColor=none;strokeWidth=1;" vertex="1" parent="1">
          <mxGeometry x="1844" y="-404" width="409" height="688" as="geometry" />
        </mxCell>
        <mxCell id="GovcZ-olXP5dSqTDZoE6-16" value="&lt;p style=&quot;margin:0px;margin-top:4px;text-align:center;&quot;&gt;&lt;b&gt;sales_order  /* 주문 관리 테이블 */&lt;/b&gt;&lt;/p&gt;&lt;hr size=&quot;1&quot;/&gt;&lt;p style=&quot;margin:0 0 0 4px;line-height:1.6;&quot;&gt; user_id  /* 회원순번 */: bigint&lt;br/&gt; sales_order_number  /* 주문번호 */: varchar(50)&lt;br/&gt; sales_order_type  /* 주문유형 */: varchar(50)&lt;br/&gt; sales_order_status  /* 주문상태 */: varchar(50)&lt;br/&gt; order_datetime  /* 주문일시 */: datetime&lt;br/&gt; completion_datetime  /* 주문완료 일시 */: datetime&lt;br/&gt; cancel_datetime  /* 주문취소 일시 */: datetime&lt;br/&gt; cancel_reason_type  /* 주문취소 유형 */: varchar(50)&lt;br/&gt; order_aggregation_id  /* 주문집계 채번 */: bigint&lt;br/&gt; delete_yn: varchar(1)&lt;br/&gt; created_user_id: bigint&lt;br/&gt; created_datetime: datetime&lt;br/&gt; modified_user_id: bigint&lt;br/&gt; modified_datetime: datetime&lt;/p&gt;&lt;hr size=&quot;1&quot;/&gt;&lt;p style=&quot;margin:0 0 0 4px;line-height:1.6;&quot;&gt; sales_order_id  /* 주문채번 PK */: bigint&lt;/p&gt;" style="verticalAlign=top;align=left;overflow=fill;fontSize=14;fontFamily=Helvetica;html=1;rounded=0;shadow=0;comic=0;labelBackgroundColor=none;strokeWidth=1;" vertex="1" parent="1">
          <mxGeometry x="1845" y="1045" width="330" height="400" as="geometry" />
        </mxCell>
        <mxCell id="GovcZ-olXP5dSqTDZoE6-17" value="&lt;p style=&quot;margin:0px;margin-top:4px;text-align:center;&quot;&gt;&lt;b&gt;sales_order_history  /* 주문 결제 이력 관리 테이블 */&lt;/b&gt;&lt;/p&gt;&lt;hr size=&quot;1&quot;/&gt;&lt;p style=&quot;margin:0 0 0 4px;line-height:1.6;&quot;&gt; sales_order_id  /* 주문채번 */: bigint&lt;br/&gt; payment_status  /* 결제상태 */: varchar(50)&lt;br/&gt; payment_type  /* 결제유형 */: varchar(50)&lt;br/&gt; products_amount  /* 상품금액 */: decimal(19,2)&lt;br/&gt; sale_amount  /* 결제금액 */: decimal(19,2)&lt;br/&gt; cancel_amount  /* 취소금액 */: decimal(19,2)&lt;br/&gt; refund_amount  /* 환불금액 */: decimal(19,2)&lt;br/&gt; delivery_fee_amount  /* 배송금액 */: decimal(19,2)&lt;br/&gt; delete_yn: varchar(1)&lt;br/&gt; created_user_id: bigint&lt;br/&gt; created_datetime: datetime&lt;br/&gt; modified_user_id: bigint&lt;br/&gt; modified_datetime: datetime&lt;/p&gt;&lt;hr size=&quot;1&quot;/&gt;&lt;p style=&quot;margin:0 0 0 4px;line-height:1.6;&quot;&gt; sales_order_history_id  /* 주문이력 채번 PK */: bigint&lt;/p&gt;" style="verticalAlign=top;align=left;overflow=fill;fontSize=14;fontFamily=Helvetica;html=1;rounded=0;shadow=0;comic=0;labelBackgroundColor=none;strokeWidth=1;" vertex="1" parent="1">
          <mxGeometry x="273" y="1562" width="339" height="376" as="geometry" />
        </mxCell>
        <mxCell id="GovcZ-olXP5dSqTDZoE6-18" value="&lt;p style=&quot;margin:0px;margin-top:4px;text-align:center;&quot;&gt;&lt;b&gt;settle_base_daily  /* 일정산 기초정보 관리 테이블 */&lt;/b&gt;&lt;/p&gt;&lt;hr size=&quot;1&quot;/&gt;&lt;p style=&quot;margin:0 0 0 4px;line-height:1.6;&quot;&gt; settle_month  /* 정산월 */: varchar(6)&lt;br/&gt; base_date  /* 기준일 */: date&lt;br/&gt; user_id  /* 회원순번 */: bigint&lt;br/&gt; daily_amount  /* 일 구매금액 */: decimal(19,2)&lt;br/&gt; delete_yn: varchar(1)&lt;br/&gt; created_user_id: bigint&lt;br/&gt; created_datetime: datetime&lt;br/&gt; modified_user_id: bigint&lt;br/&gt; modified_datetime: datetime&lt;/p&gt;&lt;hr size=&quot;1&quot;/&gt;&lt;p style=&quot;margin:0 0 0 4px;line-height:1.6;&quot;&gt; settle_base_daily_id  /* 일정산 기초 정보 채번 PK */: bigint&lt;/p&gt;" style="verticalAlign=top;align=left;overflow=fill;fontSize=14;fontFamily=Helvetica;html=1;rounded=0;shadow=0;comic=0;labelBackgroundColor=none;strokeWidth=1;" vertex="1" parent="1">
          <mxGeometry x="-242" y="1983" width="348" height="280" as="geometry" />
        </mxCell>
        <mxCell id="GovcZ-olXP5dSqTDZoE6-19" value="&lt;p style=&quot;margin:0px;margin-top:4px;text-align:center;&quot;&gt;&lt;b&gt;tag  /* 태그 정보 관리 테이블 */&lt;/b&gt;&lt;/p&gt;&lt;hr size=&quot;1&quot;/&gt;&lt;p style=&quot;margin:0 0 0 4px;line-height:1.6;&quot;&gt; tag_name  /* 태그 명 */: varchar(50)&lt;br/&gt; version  /* 버전 */: int&lt;br/&gt; delete_yn: varchar(1)&lt;br/&gt; created_user_id: bigint&lt;br/&gt; created_datetime: datetime&lt;br/&gt; modified_user_id: bigint&lt;br/&gt; modified_datetime: datetime&lt;/p&gt;&lt;hr size=&quot;1&quot;/&gt;&lt;p style=&quot;margin:0 0 0 4px;line-height:1.6;&quot;&gt; tag_id  /* 태그순번 PK */: bigint&lt;/p&gt;" style="verticalAlign=top;align=left;overflow=fill;fontSize=14;fontFamily=Helvetica;html=1;rounded=0;shadow=0;comic=0;labelBackgroundColor=none;strokeWidth=1;" vertex="1" parent="1">
          <mxGeometry x="1204" y="1983" width="235" height="232" as="geometry" />
        </mxCell>
        <mxCell id="GovcZ-olXP5dSqTDZoE6-20" value="&lt;p style=&quot;margin:0px;margin-top:4px;text-align:center;&quot;&gt;&lt;b&gt;user  /* 회원 관리 테이블 */&lt;/b&gt;&lt;/p&gt;&lt;hr size=&quot;1&quot;/&gt;&lt;p style=&quot;margin:0 0 0 4px;line-height:1.6;&quot;&gt; user_type  /* 회원유형 */: varchar(20)&lt;br/&gt; user_account  /* 회원계정 */: varchar(30)&lt;br/&gt; user_account_type  /* 회원계정 유형 */: varchar(20)&lt;br/&gt; user_password  /* 회원 비밀번호 */: varchar(100)&lt;br/&gt; user_status  /* 회원상태 (활성, 탈퇴, 휴면, 잠금) */: varchar(20)&lt;br/&gt; password_init_yn  /* 비밀번호 초기화 필요 여부 */: char(1)&lt;br/&gt; fail_password_count  /* 비밀번호 틀린 횟수 */: int&lt;br/&gt; account_locked_datetime  /* 로그인 잠금 일시 */: datetime&lt;br/&gt; last_login_datetime  /* 마지막 로그인 일시 */: datetime&lt;br/&gt; last_password_change_datetime  /* 마지막 비밀번호 변경 일시 */: datetime&lt;br/&gt; required_password_change_datetime  /* 비밀번호 변경 요구 일시 */: datetime&lt;br/&gt; login_available_date  /* 로그인 가능일자 */: date&lt;br/&gt; rejoin_possible_date  /* 재가입 가능일자 */: date&lt;br/&gt; user_connecting_information_id  /* CI 인증정보 순번 */: bigint&lt;br/&gt; rejoin_yn  /* 재가입여부 */: char(1)&lt;br/&gt; delete_yn: char(1)&lt;br/&gt; created_user_id: bigint&lt;br/&gt; created_datetime: datetime&lt;br/&gt; modified_user_id: bigint&lt;br/&gt; modified_datetime: datetime&lt;/p&gt;&lt;hr size=&quot;1&quot;/&gt;&lt;p style=&quot;margin:0 0 0 4px;line-height:1.6;&quot;&gt; user_id  /* 회원순번 PK */: bigint&lt;/p&gt;" style="verticalAlign=top;align=left;overflow=fill;fontSize=14;fontFamily=Helvetica;html=1;rounded=0;shadow=0;comic=0;labelBackgroundColor=none;strokeWidth=1;" vertex="1" parent="1">
          <mxGeometry x="335" y="-54" width="471" height="544" as="geometry" />
        </mxCell>
        <mxCell id="GovcZ-olXP5dSqTDZoE6-21" value="&lt;p style=&quot;margin:0px;margin-top:4px;text-align:center;&quot;&gt;&lt;b&gt;user_addresses  /* 회원 배송지 정보 관리 테이블 */&lt;/b&gt;&lt;/p&gt;&lt;hr size=&quot;1&quot;/&gt;&lt;p style=&quot;margin:0 0 0 4px;line-height:1.6;&quot;&gt; user_id  /* 회원순번 */: bigint&lt;br/&gt; address_name  /* 배송지 별칭 */: varchar(100)&lt;br/&gt; first_name  /* 수취인 이름 */: varchar(100)&lt;br/&gt; last_name  /* 수취인 성 */: varchar(100)&lt;br/&gt; mobile_number  /* 수취인 휴대폰번호 */: varchar(30)&lt;br/&gt; tel_number  /* 수취인 전화번호 */: varchar(30)&lt;br/&gt; address1  /* 주소 */: varchar(255)&lt;br/&gt; address2  /* 상세주소 */: varchar(255)&lt;br/&gt; city  /* 시 */: varchar(100)&lt;br/&gt; state  /* 도/주 */: varchar(100)&lt;br/&gt; zipcode  /* 우편번호 */: varchar(12)&lt;br/&gt; delivery_message  /* 배송메시지 */: varchar(255)&lt;br/&gt; default_yn  /* 기본배송지 여부 */: char(1)&lt;br/&gt; address_valid_yn  /* 주소검증 여부 */: char(1)&lt;br/&gt; delete_yn: varchar(1)&lt;br/&gt; created_user_id: bigint&lt;br/&gt; created_datetime: datetime&lt;br/&gt; modified_user_id: bigint&lt;br/&gt; modified_datetime: datetime&lt;/p&gt;&lt;hr size=&quot;1&quot;/&gt;&lt;p style=&quot;margin:0 0 0 4px;line-height:1.6;&quot;&gt; user_addresses_id  /* 회원배송지 순번 PK */: bigint&lt;/p&gt;" style="verticalAlign=top;align=left;overflow=fill;fontSize=14;fontFamily=Helvetica;html=1;rounded=0;shadow=0;comic=0;labelBackgroundColor=none;strokeWidth=1;" vertex="1" parent="1">
          <mxGeometry x="857" y="-369" width="319" height="520" as="geometry" />
        </mxCell>
        <mxCell id="GovcZ-olXP5dSqTDZoE6-22" value="&lt;p style=&quot;margin:0px;margin-top:4px;text-align:center;&quot;&gt;&lt;b&gt;user_connecting_information  /* 회원 실명 인증 관리 테이블 */&lt;/b&gt;&lt;/p&gt;&lt;hr size=&quot;1&quot;/&gt;&lt;p style=&quot;margin:0 0 0 4px;line-height:1.6;&quot;&gt; request_number  /* 요청번호 */: varchar(50)&lt;br/&gt; response_number  /* 응답번호 */: varchar(50)&lt;br/&gt; legal_name  /* 실명 */: varchar(50)&lt;br/&gt; birth_date  /* 법정생년월일 */: date&lt;br/&gt; gender_type  /* 성별 */: varchar(20)&lt;br/&gt; duplication_information  /* DI 값 */: varchar(64)&lt;br/&gt; connecting_information  /* CI 값 */: varchar(88)&lt;br/&gt; delete_yn: varchar(1)&lt;br/&gt; created_user_id: bigint&lt;br/&gt; created_datetime: datetime&lt;br/&gt; modified_user_id: bigint&lt;br/&gt; modified_datetime: datetime&lt;/p&gt;&lt;hr size=&quot;1&quot;/&gt;&lt;p style=&quot;margin:0 0 0 4px;line-height:1.6;&quot;&gt; user_connecting_information_id  /* 회원 실명인증 순번 PK */: bigint&lt;/p&gt;" style="verticalAlign=top;align=left;overflow=fill;fontSize=14;fontFamily=Helvetica;html=1;rounded=0;shadow=0;comic=0;labelBackgroundColor=none;strokeWidth=1;" vertex="1" parent="1">
          <mxGeometry x="657" y="1562" width="413" height="352" as="geometry" />
        </mxCell>
        <mxCell id="GovcZ-olXP5dSqTDZoE6-23" value="&lt;p style=&quot;margin:0px;margin-top:4px;text-align:center;&quot;&gt;&lt;b&gt;user_detail  /* 회원 상세 정보 관리 테이블 */&lt;/b&gt;&lt;/p&gt;&lt;hr size=&quot;1&quot;/&gt;&lt;p style=&quot;margin:0 0 0 4px;line-height:1.6;&quot;&gt; user_id  /* 회원순번 */: bigint&lt;br/&gt; user_type  /* 회원유형 */: varchar(30)&lt;br/&gt; user_number  /* 회원번호 */: varchar(30)&lt;br/&gt; nick_name  /* 회원 닉네임 */: varchar(100)&lt;br/&gt; first_name  /* 이름 */: varchar(100)&lt;br/&gt; last_name  /* 성 */: varchar(100)&lt;br/&gt; birth_date  /* 생년월일 */: date&lt;br/&gt; gender  /* 성별(MALE|FEMALE|NON_BINARY|OTHER) */: varchar(20)&lt;br/&gt; mobile_number  /* 휴대폰번호 */: varchar(30)&lt;br/&gt; personal_id  /* 개인식별번호 */: varchar(100)&lt;br/&gt; tel_number  /* 전화번호 */: varchar(30)&lt;br/&gt; email  /* 이메일주소 */: varchar(150)&lt;br/&gt; address1  /* 주소 */: varchar(255)&lt;br/&gt; address2  /* 상세주소 */: varchar(255)&lt;br/&gt; city  /* 시 */: varchar(100)&lt;br/&gt; state  /* 도/주 */: varchar(100)&lt;br/&gt; zipcode  /* 우편번호 */: varchar(30)&lt;br/&gt; join_datetime  /* 회원가입 일시 */: datetime&lt;br/&gt; activated_datetime  /* 계정 활성화 일시 - 최초 가입시, 탈퇴 -&amp;gt; 복원 시, 휴면 -&amp;gt; 복구 시 */: datetime&lt;br/&gt; inactivated_datetime  /* 계정 비활성 일시 */: datetime&lt;br/&gt; withdrawal_datetime  /* 탈퇴 일시 */: datetime&lt;br/&gt; dormant_datetime  /* 휴면처리 일시 */: datetime&lt;br/&gt; send_email_state  /* 가입완료 이메일 전송 여부 (NULL:제외, Y:발송완료, N:미발송, F:발송실패) */: char(1)&lt;br/&gt; send_email_retry_count  /* 가입완료 이메일 전송 재시도 횟수 */: tinyint&lt;br/&gt; send_alarm_state  /* 가입완료 알림톡 전송 여부 (NULL:제외, Y:발송완료, N:미발송, F:발송실패) */: char(1)&lt;br/&gt; send_alarm_retry_count  /* 가입완료 알림톡 전송 재시도 횟수 */: tinyint&lt;br/&gt; delete_yn: varchar(1)&lt;br/&gt; created_user_id: bigint&lt;br/&gt; created_datetime: datetime&lt;br/&gt; modified_user_id: bigint&lt;br/&gt; modified_datetime: datetime&lt;/p&gt;&lt;hr size=&quot;1&quot;/&gt;&lt;p style=&quot;margin:0 0 0 4px;line-height:1.6;&quot;&gt; user_detail_id  /* 회원 상세정보 순번 PK */: bigint&lt;/p&gt;" style="verticalAlign=top;align=left;overflow=fill;fontSize=14;fontFamily=Helvetica;html=1;rounded=0;shadow=0;comic=0;labelBackgroundColor=none;strokeWidth=1;" vertex="1" parent="1">
          <mxGeometry x="889" y="192" width="472" height="808" as="geometry" />
        </mxCell>
        <mxCell id="GovcZ-olXP5dSqTDZoE6-24" value="&lt;p style=&quot;margin:0px;margin-top:4px;text-align:center;&quot;&gt;&lt;b&gt;user_information_change_history  /* 회원 정보 변경 이력 관리 테이블 */&lt;/b&gt;&lt;/p&gt;&lt;hr size=&quot;1&quot;/&gt;&lt;p style=&quot;margin:0 0 0 4px;line-height:1.6;&quot;&gt; user_id  /* 회원순번 */: bigint&lt;br/&gt; log_type  /* 변경항목 유형 (대) */: varchar(50)&lt;br/&gt; log_sub_type  /* 변경항목 유형 (소) */: varchar(50)&lt;br/&gt; description  /* 설명 */: text&lt;br/&gt; note  /* 비고 */: text&lt;br/&gt; occurrence_datetime  /* 변경일시 */: datetime&lt;br/&gt; before_change  /* 변경전 */: varchar(255)&lt;br/&gt; after_change  /* 변경후 */: varchar(255)&lt;br/&gt; delete_yn: varchar(1)&lt;br/&gt; created_user_id: bigint&lt;br/&gt; created_datetime: datetime&lt;br/&gt; modified_user_id: bigint&lt;br/&gt; modified_datetime: datetime&lt;/p&gt;&lt;hr size=&quot;1&quot;/&gt;&lt;p style=&quot;margin:0 0 0 4px;line-height:1.6;&quot;&gt; user_information_change_history_id  /* 회원정보 변경이력 순번 PK */: bigint&lt;/p&gt;" style="verticalAlign=top;align=left;overflow=fill;fontSize=14;fontFamily=Helvetica;html=1;rounded=0;shadow=0;comic=0;labelBackgroundColor=none;strokeWidth=1;" vertex="1" parent="1">
          <mxGeometry x="-242" y="1562" width="470" height="376" as="geometry" />
        </mxCell>
        <mxCell id="GovcZ-olXP5dSqTDZoE6-25" value="&lt;p style=&quot;margin:0px;margin-top:4px;text-align:center;&quot;&gt;&lt;b&gt;user_refund_bank_account  /* 회원 환불계좌 관리 테이블 */&lt;/b&gt;&lt;/p&gt;&lt;hr size=&quot;1&quot;/&gt;&lt;p style=&quot;margin:0 0 0 4px;line-height:1.6;&quot;&gt; user_id  /* 회원순번 */: bigint&lt;br/&gt; bank_code  /* 은행코드 */: varchar(10)&lt;br/&gt; bank_name  /* 은행명 */: varchar(25)&lt;br/&gt; bank_account_no  /* 계좌번호 */: varchar(200)&lt;br/&gt; bank_holder_name  /* 예금주 */: varchar(50)&lt;br/&gt; connecting_information  /* 비회원 CI 값 */: varchar(88)&lt;br/&gt; sales_order_number  /* 주문번호 */: varchar(50)&lt;br/&gt; memo  /* 메모 */: text&lt;br/&gt; delete_yn: varchar(1)&lt;br/&gt; created_user_id: bigint&lt;br/&gt; created_datetime: datetime&lt;br/&gt; modified_user_id: bigint&lt;br/&gt; modified_datetime: datetime&lt;/p&gt;&lt;hr size=&quot;1&quot;/&gt;&lt;p style=&quot;margin:0 0 0 4px;line-height:1.6;&quot;&gt; user_refund_bank_account_id  /* 환불계좌 순번 PK */: bigint&lt;/p&gt;" style="verticalAlign=top;align=left;overflow=fill;fontSize=14;fontFamily=Helvetica;html=1;rounded=0;shadow=0;comic=0;labelBackgroundColor=none;strokeWidth=1;" vertex="1" parent="1">
          <mxGeometry x="282" y="560" width="396" height="376" as="geometry" />
        </mxCell>
        <mxCell id="GovcZ-olXP5dSqTDZoE6-26" value="&lt;p style=&quot;margin:0px;margin-top:4px;text-align:center;&quot;&gt;&lt;b&gt;user_refund_bank_account_history  /* 회원 환불계좌 이력 관리 테이블 */&lt;/b&gt;&lt;/p&gt;&lt;hr size=&quot;1&quot;/&gt;&lt;p style=&quot;margin:0 0 0 4px;line-height:1.6;&quot;&gt; user_refund_bank_account_id  /* 환불계좌 순번 */: bigint&lt;br/&gt; user_id  /* 회원순번 */: bigint&lt;br/&gt; connecting_information  /* 비회원 CI 값 */: varchar(88)&lt;br/&gt; sales_order_number  /* 주문번호 */: varchar(50)&lt;br/&gt; before_bank_code  /* 변경전 은행코드 */: varchar(10)&lt;br/&gt; before_bank_name  /* 변경전 은행명 */: varchar(25)&lt;br/&gt; before_bank_account_no  /* 변경전 계좌번호 */: varchar(200)&lt;br/&gt; before_bank_holder_name  /* 변경전 예금주 */: varchar(50)&lt;br/&gt; after_bank_code  /* 변경후 은행코드 */: varchar(10)&lt;br/&gt; after_bank_name  /* 변경후 은행명 */: varchar(25)&lt;br/&gt; after_bank_account_no  /* 변경후 계좌번호 */: varchar(200)&lt;br/&gt; after_bank_holder_name  /* 변경후 예금주 */: varchar(50)&lt;br/&gt; memo  /* 메모 */: text&lt;br/&gt; delete_yn: varchar(1)&lt;br/&gt; created_user_id: bigint&lt;br/&gt; created_datetime: datetime&lt;br/&gt; modified_user_id: bigint&lt;br/&gt; modified_datetime: datetime&lt;/p&gt;&lt;hr size=&quot;1&quot;/&gt;&lt;p style=&quot;margin:0 0 0 4px;line-height:1.6;&quot;&gt; user_refund_bank_account_history_id  /* 환불계좌 이력 순번 PK */: bigint&lt;/p&gt;" style="verticalAlign=top;align=left;overflow=fill;fontSize=14;fontFamily=Helvetica;html=1;rounded=0;shadow=0;comic=0;labelBackgroundColor=none;strokeWidth=1;" vertex="1" parent="1">
          <mxGeometry x="-242" y="224" width="483" height="496" as="geometry" />
        </mxCell>
        <mxCell id="GovcZ-olXP5dSqTDZoE6-27" value="&lt;p style=&quot;margin:0px;margin-top:4px;text-align:center;&quot;&gt;&lt;b&gt;user_social_account  /* 회원 소셜 계정 관리 테이블 */&lt;/b&gt;&lt;/p&gt;&lt;hr size=&quot;1&quot;/&gt;&lt;p style=&quot;margin:0 0 0 4px;line-height:1.6;&quot;&gt; user_id  /* 회원순번 */: bigint&lt;br/&gt; service_type  /* 소셜서비스 유형 */: varchar(20)&lt;br/&gt; service_id  /* 소셜서비스 내 회원 고유 식별키 */: varchar(150)&lt;br/&gt; delete_yn: varchar(1)&lt;br/&gt; created_user_id: bigint&lt;br/&gt; created_datetime: datetime&lt;br/&gt; modified_user_id: bigint&lt;br/&gt; modified_datetime: datetime&lt;/p&gt;&lt;hr size=&quot;1&quot;/&gt;&lt;p style=&quot;margin:0 0 0 4px;line-height:1.6;&quot;&gt; user_social_account_id  /* 회원 소셜계정 순번 PK */: bigint&lt;/p&gt;" style="verticalAlign=top;align=left;overflow=fill;fontSize=14;fontFamily=Helvetica;html=1;rounded=0;shadow=0;comic=0;labelBackgroundColor=none;strokeWidth=1;" vertex="1" parent="1">
          <mxGeometry x="355" y="-404" width="356" height="256" as="geometry" />
        </mxCell>
        <mxCell id="GovcZ-olXP5dSqTDZoE6-28" value="&lt;p style=&quot;margin:0px;margin-top:4px;text-align:center;&quot;&gt;&lt;b&gt;withdrawal_user  /* 탈퇴 회원 정보 관리 테이블 */&lt;/b&gt;&lt;/p&gt;&lt;hr size=&quot;1&quot;/&gt;&lt;p style=&quot;margin:0 0 0 4px;line-height:1.6;&quot;&gt; user_id  /* 회원순번 */: bigint&lt;br/&gt; withdrawal_type  /* 탈퇴사유 유형 */: varchar(30)&lt;br/&gt; note  /* 비고 */: varchar(255)&lt;br/&gt; withdrawal_datetime  /* 탈퇴일시 */: datetime&lt;br/&gt; delete_yn: varchar(1)&lt;br/&gt; created_user_id: bigint&lt;br/&gt; created_datetime: datetime&lt;br/&gt; modified_user_id: bigint&lt;br/&gt; modified_datetime: datetime&lt;/p&gt;&lt;hr size=&quot;1&quot;/&gt;&lt;p style=&quot;margin:0 0 0 4px;line-height:1.6;&quot;&gt; withdrawal_user_id  /* 탈퇴회원 순번 PK */: bigint&lt;/p&gt;" style="verticalAlign=top;align=left;overflow=fill;fontSize=14;fontFamily=Helvetica;html=1;rounded=0;shadow=0;comic=0;labelBackgroundColor=none;strokeWidth=1;" vertex="1" parent="1">
          <mxGeometry x="-20" y="-195" width="314" height="280" as="geometry" />
        </mxCell>
        <mxCell id="GovcZ-olXP5dSqTDZoE6-29" value="" style="html=1;rounded=1;;dashed=0;startArrow=none;endArrow=block;endSize=12;strokeColor=#595959;exitX=0.506;exitY=0.000;exitDx=0;exitDy=0;entryX=0.492;entryY=1.000;entryDx=0;entryDy=0;" edge="1" parent="1" source="GovcZ-olXP5dSqTDZoE6-6" target="GovcZ-olXP5dSqTDZoE6-5">
          <mxGeometry width="50" height="50" relative="1" as="geometry">
            <Array as="points" />
          </mxGeometry>
        </mxCell>
        <mxCell id="GovcZ-olXP5dSqTDZoE6-30" value="payment_id" style="edgeLabel;resizable=0;html=1;align=left;verticalAlign=top;strokeColor=default;" vertex="1" connectable="0" parent="GovcZ-olXP5dSqTDZoE6-29">
          <mxGeometry x="1534" y="151" as="geometry" />
        </mxCell>
        <mxCell id="GovcZ-olXP5dSqTDZoE6-31" value="" style="html=1;rounded=1;;dashed=0;startArrow=none;endArrow=block;endSize=12;strokeColor=#595959;exitX=0.000;exitY=0.725;exitDx=0;exitDy=0;entryX=1.000;entryY=0.183;entryDx=0;entryDy=0;" edge="1" parent="1" source="GovcZ-olXP5dSqTDZoE6-21" target="GovcZ-olXP5dSqTDZoE6-20">
          <mxGeometry width="50" height="50" relative="1" as="geometry">
            <Array as="points" />
          </mxGeometry>
        </mxCell>
        <mxCell id="GovcZ-olXP5dSqTDZoE6-32" value="user_id" style="edgeLabel;resizable=0;html=1;align=left;verticalAlign=top;strokeColor=default;" vertex="1" connectable="0" parent="GovcZ-olXP5dSqTDZoE6-31">
          <mxGeometry x="796" y="1" as="geometry" />
        </mxCell>
        <mxCell id="GovcZ-olXP5dSqTDZoE6-33" value="" style="html=1;rounded=1;;dashed=0;startArrow=none;endArrow=block;endSize=12;strokeColor=#595959;exitX=0.000;exitY=0.301;exitDx=0;exitDy=0;entryX=1.000;entryY=0.795;entryDx=0;entryDy=0;" edge="1" parent="1" source="GovcZ-olXP5dSqTDZoE6-23" target="GovcZ-olXP5dSqTDZoE6-20">
          <mxGeometry width="50" height="50" relative="1" as="geometry">
            <Array as="points" />
          </mxGeometry>
        </mxCell>
        <mxCell id="GovcZ-olXP5dSqTDZoE6-34" value="user_id" style="edgeLabel;resizable=0;html=1;align=left;verticalAlign=top;strokeColor=default;" vertex="1" connectable="0" parent="GovcZ-olXP5dSqTDZoE6-33">
          <mxGeometry x="813" y="415" as="geometry" />
        </mxCell>
        <mxCell id="GovcZ-olXP5dSqTDZoE6-35" value="" style="html=1;rounded=1;;dashed=0;startArrow=none;endArrow=block;endSize=12;strokeColor=#595959;exitX=0.581;exitY=0.000;exitDx=0;exitDy=0;entryX=0.401;entryY=1.000;entryDx=0;entryDy=0;" edge="1" parent="1" source="GovcZ-olXP5dSqTDZoE6-25" target="GovcZ-olXP5dSqTDZoE6-20">
          <mxGeometry width="50" height="50" relative="1" as="geometry">
            <Array as="points" />
          </mxGeometry>
        </mxCell>
        <mxCell id="GovcZ-olXP5dSqTDZoE6-36" value="user_id" style="edgeLabel;resizable=0;html=1;align=left;verticalAlign=top;strokeColor=default;" vertex="1" connectable="0" parent="GovcZ-olXP5dSqTDZoE6-35">
          <mxGeometry x="471" y="512" as="geometry" />
        </mxCell>
        <mxCell id="GovcZ-olXP5dSqTDZoE6-37" value="" style="html=1;rounded=1;;dashed=0;startArrow=none;endArrow=block;endSize=12;strokeColor=#595959;exitX=1.000;exitY=0.283;exitDx=0;exitDy=0;entryX=0.000;entryY=0.693;entryDx=0;entryDy=0;" edge="1" parent="1" source="GovcZ-olXP5dSqTDZoE6-26" target="GovcZ-olXP5dSqTDZoE6-20">
          <mxGeometry width="50" height="50" relative="1" as="geometry">
            <Array as="points" />
          </mxGeometry>
        </mxCell>
        <mxCell id="GovcZ-olXP5dSqTDZoE6-38" value="user_id" style="edgeLabel;resizable=0;html=1;align=left;verticalAlign=top;strokeColor=default;" vertex="1" connectable="0" parent="GovcZ-olXP5dSqTDZoE6-37">
          <mxGeometry x="258" y="318" as="geometry" />
        </mxCell>
        <mxCell id="GovcZ-olXP5dSqTDZoE6-39" value="" style="html=1;rounded=1;;dashed=0;startArrow=none;endArrow=block;endSize=12;strokeColor=#595959;exitX=1.000;exitY=0.780;exitDx=0;exitDy=0;entryX=0.000;entryY=0.198;entryDx=0;entryDy=0;" edge="1" parent="1" source="GovcZ-olXP5dSqTDZoE6-26" target="GovcZ-olXP5dSqTDZoE6-25">
          <mxGeometry width="50" height="50" relative="1" as="geometry">
            <Array as="points" />
          </mxGeometry>
        </mxCell>
        <mxCell id="GovcZ-olXP5dSqTDZoE6-40" value="user_refund_bank_account_id" style="edgeLabel;resizable=0;html=1;align=left;verticalAlign=top;strokeColor=default;" vertex="1" connectable="0" parent="GovcZ-olXP5dSqTDZoE6-39">
          <mxGeometry x="128" y="646" as="geometry" />
        </mxCell>
        <mxCell id="GovcZ-olXP5dSqTDZoE6-41" value="" style="html=1;rounded=1;;dashed=0;startArrow=none;endArrow=block;endSize=12;strokeColor=#595959;exitX=0.527;exitY=1.000;exitDx=0;exitDy=0;entryX=0.456;entryY=0.000;entryDx=0;entryDy=0;" edge="1" parent="1" source="GovcZ-olXP5dSqTDZoE6-27" target="GovcZ-olXP5dSqTDZoE6-20">
          <mxGeometry width="50" height="50" relative="1" as="geometry">
            <Array as="points" />
          </mxGeometry>
        </mxCell>
        <mxCell id="GovcZ-olXP5dSqTDZoE6-42" value="user_id" style="edgeLabel;resizable=0;html=1;align=left;verticalAlign=top;strokeColor=default;" vertex="1" connectable="0" parent="GovcZ-olXP5dSqTDZoE6-41">
          <mxGeometry x="502" y="-85" as="geometry" />
        </mxCell>
        <mxCell id="GovcZ-olXP5dSqTDZoE6-43" value="" style="html=1;rounded=1;;dashed=0;startArrow=none;endArrow=block;endSize=12;strokeColor=#595959;exitX=1.000;exitY=0.853;exitDx=0;exitDy=0;entryX=0.000;entryY=0.227;entryDx=0;entryDy=0;" edge="1" parent="1" source="GovcZ-olXP5dSqTDZoE6-28" target="GovcZ-olXP5dSqTDZoE6-20">
          <mxGeometry width="50" height="50" relative="1" as="geometry">
            <Array as="points" />
          </mxGeometry>
        </mxCell>
        <mxCell id="GovcZ-olXP5dSqTDZoE6-44" value="user_id" style="edgeLabel;resizable=0;html=1;align=left;verticalAlign=top;strokeColor=default;" vertex="1" connectable="0" parent="GovcZ-olXP5dSqTDZoE6-43">
          <mxGeometry x="301" y="77" as="geometry" />
        </mxCell>
      </root>
    </mxGraphModel>
  </diagram>
</mxfile>
